<?xml version="1.0" standalone="no"?>
<!DOCTYPE svg PUBLIC "-//W3C//DTD SVG 20010904//EN"
 "http://www.w3.org/TR/2001/REC-SVG-20010904/DTD/svg10.dtd">
<svg version="1.0" xmlns="http://www.w3.org/2000/svg"
 width="512.000000pt" height="512.000000pt" viewBox="0 0 512.000000 512.000000"
 preserveAspectRatio="xMidYMid meet">
<metadata>
Created by potrace 1.14, written by Peter Selinger 2001-2017
</metadata>
<g transform="translate(0.000000,512.000000) scale(0.100000,-0.100000)"
fill="#000000" stroke="none">
<path d="M2530 4870 c-196 -27 -211 -30 -360 -80 -266 -88 -497 -229 -815
-494 -360 -302 -629 -551 -740 -687 -27 -34 -56 -68 -63 -75 -7 -7 -47 -64
-89 -126 -103 -153 -198 -357 -218 -469 -3 -18 -8 -35 -10 -39 -26 -42 -26
-478 0 -521 3 -4 7 -24 11 -45 9 -57 50 -193 90 -303 39 -103 170 -378 228
-476 20 -33 39 -67 42 -75 4 -8 36 -59 71 -113 319 -487 793 -844 1352 -1018
143 -44 240 -65 466 -99 61 -9 500 -7 545 3 14 3 52 9 85 13 33 4 62 8 65 9 3
0 28 4 55 9 94 14 336 77 453 117 268 93 552 260 699 410 128 131 180 203 259
359 71 140 149 379 178 550 3 19 8 44 10 55 4 25 14 95 21 155 3 25 7 63 10
85 28 239 28 862 0 1080 -9 69 -30 199 -39 240 -79 369 -201 648 -393 898 -45
58 -186 204 -233 242 -14 11 -46 36 -70 56 -177 141 -474 259 -764 303 -21 4
-48 8 -60 11 -12 2 -52 7 -89 10 -37 4 -78 9 -90 11 -40 9 -551 12 -607 4z
m380 -1261 c176 -77 220 -315 83 -452 -105 -106 -271 -111 -381 -12 -63 56
-96 129 -94 205 2 71 3 76 31 133 20 42 106 126 129 127 4 1 29 7 56 14 60 16
116 11 176 -15z m-877 -183 c56 -24 113 -82 142 -142 23 -50 27 -140 7 -199
-53 -155 -216 -230 -368 -169 -183 73 -233 314 -94 452 82 82 206 105 313 58z
m1588 -278 c181 -77 218 -330 68 -461 -123 -108 -326 -80 -415 58 -105 162
-14 382 174 420 68 14 111 10 173 -17z m-968 -364 c181 -38 349 -141 454 -278
160 -209 207 -459 132 -703 -78 -252 -273 -440 -536 -515 -111 -32 -296 -31
-403 1 -136 42 -236 101 -333 196 -303 299 -307 783 -7 1085 114 115 275 200
410 217 25 3 47 7 48 8 10 9 179 1 235 -11z m1187 -486 c118 -37 203 -174 185
-298 -10 -68 -41 -125 -96 -174 -141 -127 -371 -69 -439 110 -26 70 -25 129 1
200 52 139 202 209 349 162z"/>
</g>
</svg>
