<svg xmlns="http://www.w3.org/2000/svg" width="14.543" height="13.816" viewBox="0 0 14.543 13.816">
  <g id="download" transform="translate(-2 -2)">
    <path id="Path_184667" data-name="Path 184667" d="M15.816,19H2.727a.727.727,0,1,0,0,1.454H15.816a.727.727,0,1,0,0-1.454Z" transform="translate(0 -4.638)" fill="#fff"/>
    <path id="Path_184668" data-name="Path 184668" d="M10.362,2a.727.727,0,0,0-.727.727v7.7l-2.392-2.4A.73.73,0,0,0,6.21,9.061L9.845,12.7a.727.727,0,0,0,1.033,0l3.636-3.636a.73.73,0,0,0-1.033-1.033l-2.392,2.4v-7.7A.727.727,0,0,0,10.362,2Z" transform="translate(-1.09)" fill="#fff"/>
  </g>
</svg>
