<svg xmlns="http://www.w3.org/2000/svg" width="19.403" height="13.643" viewBox="0 0 19.403 13.643">
  <g id="mail_3_" data-name="mail (3)" transform="translate(0 -76)">
    <g id="Group_189422" data-name="Group 189422" transform="translate(13.347 76.975)">
      <g id="Group_189421" data-name="Group 189421">
        <path id="Path_184663" data-name="Path 184663" d="M358.1,101.721l-5.884,5.847,5.884,5.847a1.686,1.686,0,0,0,.171-.731V102.452A1.686,1.686,0,0,0,358.1,101.721Z" transform="translate(-352.211 -101.721)" fill="#fff"/>
      </g>
    </g>
    <g id="Group_189424" data-name="Group 189424" transform="translate(0.975 76)">
      <g id="Group_189423" data-name="Group 189423">
        <path id="Path_184664" data-name="Path 184664" d="M42.444,76H26.452a1.686,1.686,0,0,0-.731.171l7.521,7.483a1.707,1.707,0,0,0,2.411,0l7.521-7.483A1.686,1.686,0,0,0,42.444,76Z" transform="translate(-25.721 -76)" fill="#fff"/>
      </g>
    </g>
    <g id="Group_189426" data-name="Group 189426" transform="translate(0 76.975)">
      <g id="Group_189425" data-name="Group 189425">
        <path id="Path_184665" data-name="Path 184665" d="M.171,101.721a1.686,1.686,0,0,0-.171.731v10.232a1.685,1.685,0,0,0,.171.731l5.884-5.847Z" transform="translate(0 -101.721)" fill="#fff"/>
      </g>
    </g>
    <g id="Group_189428" data-name="Group 189428" transform="translate(0.975 83.625)">
      <g id="Group_189427" data-name="Group 189427">
        <path id="Path_184666" data-name="Path 184666" d="M37.29,277.211l-.833.833a2.845,2.845,0,0,1-4.019,0l-.833-.833-5.884,5.847a1.685,1.685,0,0,0,.731.171H42.444a1.685,1.685,0,0,0,.731-.171Z" transform="translate(-25.721 -277.211)" fill="#fff"/>
      </g>
    </g>
  </g>
</svg>
