<svg id="youtube" xmlns="http://www.w3.org/2000/svg" width="30.883" height="21.734" viewBox="0 0 30.883 21.734">
  <path id="XMLID_823_" d="M29.679,47.783c-1.115-1.325-3.173-1.866-7.1-1.866H8.307c-4.021,0-6.114.575-7.224,1.986C0,49.279,0,51.306,0,54.111v5.347c0,5.434,1.285,8.194,8.307,8.194H22.575c3.409,0,5.3-.477,6.519-1.646,1.253-1.2,1.788-3.157,1.788-6.547V54.111C30.883,51.153,30.8,49.114,29.679,47.783Zm-9.852,9.739-6.479,3.386a1,1,0,0,1-1.458-.883V53.275a1,1,0,0,1,1.455-.884l6.479,3.364a1,1,0,0,1,0,1.767Z" transform="translate(0 -45.917)" fill="#fff"/>
</svg>
